<svg width="19" height="21" viewBox="0 0 19 21" fill="none" xmlns="http://www.w3.org/2000/svg">
<path d="M5.86401 2.74304C6.9944 1.99576 8.30614 1.5687 9.65981 1.50723C11.0135 1.44577 12.3585 1.7522 13.552 2.39396C14.7455 3.03572 15.7428 3.98883 16.4379 5.15201C17.1331 6.31518 17.5001 7.64497 17.5 9.00004C17.5 11.92 16.944 14.709 15.932 17.268M3.74201 4.86404C2.92956 6.09023 2.49748 7.52912 2.50001 9.00004C2.50236 10.4131 2.10357 11.7977 1.35001 12.993M3.33901 16.552C5.21603 14.4851 6.25409 11.7921 6.25001 9.00004C6.25001 8.00547 6.64509 7.05165 7.34836 6.34839C8.05162 5.64512 9.00544 5.25004 10 5.25004C10.9946 5.25004 11.9484 5.64512 12.6517 6.34839C13.3549 7.05165 13.75 8.00547 13.75 9.00004C13.75 9.52704 13.729 10.049 13.686 10.565M10 9.00004C10.0056 12.5761 8.72824 16.0356 6.40001 18.75M13.033 14.154C12.4915 16.0508 11.6528 17.8498 10.548 19.484" stroke="#F5F5F5" stroke-width="1.5" stroke-linecap="round" stroke-linejoin="round"/>
</svg>
