<svg width="20" height="21" viewBox="0 0 20 21" fill="none" xmlns="http://www.w3.org/2000/svg">
<path d="M10 5.24997V6.74997C8.645 6.74997 7.303 6.80597 5.976 6.91597C4.845 7.00997 4 7.97297 4 9.10797V11.621M10 6.75097C11.355 6.75097 12.697 6.80597 14.024 6.91597C15.155 7.00997 16 7.97297 16 9.10797V11.621M13 6.75097V5.25097M7 6.75097V5.25097M19 15.001L17.5 15.751C17.0343 15.9838 16.5207 16.1051 16 16.1051C15.4793 16.1051 14.9657 15.9838 14.5 15.751C14.0343 15.5181 13.5207 15.3969 13 15.3969C12.4793 15.3969 11.9657 15.5181 11.5 15.751C11.0343 15.9838 10.5207 16.1051 10 16.1051C9.47929 16.1051 8.96573 15.9838 8.5 15.751C8.03427 15.5181 7.52071 15.3969 7 15.3969C6.47929 15.3969 5.96573 15.5181 5.5 15.751C5.03427 15.9838 4.52071 16.1051 4 16.1051C3.47929 16.1051 2.96573 15.9838 2.5 15.751L1 15M16 11.62C14.0096 11.3726 12.0057 11.2491 10 11.25C7.968 11.25 5.966 11.375 4 11.62C3.61169 11.6689 3.22399 11.7225 2.837 11.781C1.768 11.941 1 12.875 1 13.955V19.125C1.00027 19.4232 1.11891 19.7091 1.32986 19.9198C1.54081 20.1306 1.8268 20.249 2.125 20.249H17.875C18.496 20.249 19 19.745 19 19.125V13.955C19 12.874 18.233 11.94 17.163 11.78C16.777 11.722 16.39 11.669 16 11.62ZM10.265 1.60997C10.3175 1.6624 10.3533 1.72921 10.3678 1.80197C10.3823 1.87473 10.3749 1.95015 10.3465 2.0187C10.3181 2.08725 10.2701 2.14584 10.2084 2.18707C10.1467 2.2283 10.0742 2.2503 10 2.2503C9.92581 2.2503 9.85329 2.2283 9.79161 2.18707C9.72993 2.14584 9.68187 2.08725 9.6535 2.0187C9.62513 1.95015 9.61773 1.87473 9.63224 1.80197C9.64675 1.72921 9.68251 1.6624 9.735 1.60997L10 1.34497L10.265 1.60997ZM7.265 1.60997C7.31749 1.6624 7.35325 1.72921 7.36776 1.80197C7.38227 1.87473 7.37487 1.95015 7.3465 2.0187C7.31813 2.08725 7.27007 2.14584 7.20839 2.18707C7.14671 2.2283 7.07419 2.2503 7 2.2503C6.92581 2.2503 6.85329 2.2283 6.79161 2.18707C6.72993 2.14584 6.68187 2.08725 6.6535 2.0187C6.62513 1.95015 6.61773 1.87473 6.63224 1.80197C6.64675 1.72921 6.68251 1.6624 6.735 1.60997L7 1.34497L7.265 1.60997ZM13.265 1.60997C13.3175 1.6624 13.3533 1.72921 13.3678 1.80197C13.3823 1.87473 13.3749 1.95015 13.3465 2.0187C13.3181 2.08725 13.2701 2.14584 13.2084 2.18707C13.1467 2.2283 13.0742 2.2503 13 2.2503C12.9258 2.2503 12.8533 2.2283 12.7916 2.18707C12.7299 2.14584 12.6819 2.08725 12.6535 2.0187C12.6251 1.95015 12.6177 1.87473 12.6322 1.80197C12.6467 1.72921 12.6825 1.6624 12.735 1.60997L13 1.34497L13.265 1.60997Z" stroke="#F5F5F5" stroke-width="1.5" stroke-linecap="round" stroke-linejoin="round"/>
</svg>
