<svg width="24" height="24" viewBox="0 0 24 24" fill="none" xmlns="http://www.w3.org/2000/svg">
<path d="M18.375 12.739L10.682 20.432C9.83808 21.2759 8.69348 21.75 7.5 21.75C6.30652 21.75 5.16192 21.2759 4.318 20.432C3.47408 19.5881 2.99997 18.4435 2.99997 17.25C2.99997 16.0565 3.47408 14.9119 4.318 14.068L15.258 3.12801C15.5367 2.84948 15.8675 2.62856 16.2315 2.47787C16.5955 2.32718 16.9857 2.24966 17.3797 2.24976C17.7737 2.24985 18.1638 2.32754 18.5278 2.47841C18.8918 2.62927 19.2225 2.85035 19.501 3.12901C19.7795 3.40768 20.0005 3.73847 20.1511 4.10252C20.3018 4.46656 20.3793 4.85672 20.3792 5.25072C20.3792 5.64472 20.3015 6.03484 20.1506 6.39881C19.9997 6.76278 19.7787 7.09348 19.5 7.37201L8.552 18.32C8.26798 18.5923 7.88836 18.7411 7.49494 18.7361C7.10153 18.7311 6.72582 18.5717 6.4488 18.2924C6.17177 18.013 6.01561 17.6359 6.01396 17.2425C6.01231 16.849 6.16532 16.4707 6.44 16.189L14.25 8.37901M8.561 18.31L8.551 18.32" stroke="#A1A3A7" stroke-width="1.5" stroke-linecap="round" stroke-linejoin="round"/>
</svg>
