<svg width="16" height="15" viewBox="0 0 16 15" fill="none" xmlns="http://www.w3.org/2000/svg">
<path d="M5.4954 5.9797C5.4954 6.05089 5.46712 6.11918 5.41677 6.16952C5.36643 6.21986 5.29815 6.24815 5.22695 6.24815C5.15575 6.24815 5.08747 6.21986 5.03713 6.16952C4.98678 6.11918 4.9585 6.05089 4.9585 5.9797C4.9585 5.9085 4.98678 5.84022 5.03713 5.78987C5.08747 5.73953 5.15575 5.71125 5.22695 5.71125C5.29815 5.71125 5.36643 5.73953 5.41677 5.78987C5.46712 5.84022 5.4954 5.9085 5.4954 5.9797ZM5.4954 5.9797H5.22695M8.17991 5.9797C8.17991 6.05089 8.15162 6.11918 8.10128 6.16952C8.05094 6.21986 7.98265 6.24815 7.91146 6.24815C7.84026 6.24815 7.77198 6.21986 7.72163 6.16952C7.67129 6.11918 7.64301 6.05089 7.64301 5.9797C7.64301 5.9085 7.67129 5.84022 7.72163 5.78987C7.77198 5.73953 7.84026 5.71125 7.91146 5.71125C7.98265 5.71125 8.05094 5.73953 8.10128 5.78987C8.15162 5.84022 8.17991 5.9085 8.17991 5.9797ZM8.17991 5.9797H7.91146M10.8644 5.9797C10.8644 6.05089 10.8361 6.11918 10.7858 6.16952C10.7354 6.21986 10.6672 6.24815 10.596 6.24815C10.5248 6.24815 10.4565 6.21986 10.4061 6.16952C10.3558 6.11918 10.3275 6.05089 10.3275 5.9797C10.3275 5.9085 10.3558 5.84022 10.4061 5.78987C10.4565 5.73953 10.5248 5.71125 10.596 5.71125C10.6672 5.71125 10.7354 5.73953 10.7858 5.78987C10.8361 5.84022 10.8644 5.9085 10.8644 5.9797ZM10.8644 5.9797H10.596M0.93174 8.13446C0.93174 9.27985 1.73566 10.2778 2.8696 10.4446C3.64774 10.5591 4.43377 10.6472 5.22695 10.7087V14.0332L8.22214 11.0387C8.37044 10.891 8.56983 10.8059 8.77909 10.8011C10.1762 10.7667 11.5699 10.6476 12.9526 10.4446C14.0873 10.2778 14.8912 9.28057 14.8912 8.13374V3.82565C14.8912 2.67883 14.0873 1.68162 12.9533 1.51483C11.2839 1.26979 9.59878 1.14705 7.91146 1.14758C6.1991 1.14758 4.51538 1.27286 2.8696 1.51483C1.73566 1.68162 0.93174 2.67954 0.93174 3.82565V8.13374V8.13446Z" stroke="#A1A3A7" stroke-width="1.0738" stroke-linecap="round" stroke-linejoin="round"/>
</svg>
