<svg width="18" height="21" viewBox="0 0 18 21" fill="none" xmlns="http://www.w3.org/2000/svg">
<path d="M12.75 4.5C12.75 5.49456 12.3549 6.44839 11.6517 7.15165C10.9484 7.85491 9.99457 8.25 9.00001 8.25C8.00545 8.25 7.05162 7.85491 6.34836 7.15165C5.6451 6.44839 5.25001 5.49456 5.25001 4.5C5.25001 3.50544 5.6451 2.55161 6.34836 1.84835C7.05162 1.14509 8.00545 0.75 9.00001 0.75C9.99457 0.75 10.9484 1.14509 11.6517 1.84835C12.3549 2.55161 12.75 3.50544 12.75 4.5ZM1.50101 18.618C1.53314 16.6504 2.33735 14.7742 3.74018 13.394C5.14302 12.0139 7.0321 11.2405 9.00001 11.2405C10.9679 11.2405 12.857 12.0139 14.2598 13.394C15.6627 14.7742 16.4669 16.6504 16.499 18.618C14.1464 19.6968 11.5882 20.2535 9.00001 20.25C6.32401 20.25 3.78401 19.666 1.50101 18.618Z" stroke="#F5F5F5" stroke-width="1.5" stroke-linecap="round" stroke-linejoin="round"/>
</svg>
