<svg width="20" height="21" viewBox="0 0 20 21" fill="none" xmlns="http://www.w3.org/2000/svg">
<path d="M14.5 10.5001C14.5 11.6935 14.0259 12.8381 13.182 13.682C12.3381 14.526 11.1935 15.0001 10 15.0001C8.80653 15.0001 7.66194 14.526 6.81802 13.682C5.97411 12.8381 5.5 11.6935 5.5 10.5001C5.5 9.30658 5.97411 8.16199 6.81802 7.31808C7.66194 6.47416 8.80653 6.00006 10 6.00006C11.1935 6.00006 12.3381 6.47416 13.182 7.31808C14.0259 8.16199 14.5 9.30658 14.5 10.5001ZM14.5 10.5001C14.5 12.1571 15.507 13.5001 16.75 13.5001C17.993 13.5001 19 12.1571 19 10.5001C19 8.41786 18.278 6.40009 16.957 4.79054C15.6361 3.18099 13.7979 2.07925 11.7557 1.67305C9.71355 1.26685 7.5937 1.58132 5.75737 2.56288C3.92104 3.54443 2.48187 5.13234 1.68506 7.05605C0.888253 8.97975 0.783114 11.1202 1.38756 13.1128C1.992 15.1053 3.26863 16.8266 4.99992 17.9834C6.73121 19.1402 8.81004 19.6609 10.8822 19.4568C12.9544 19.2527 14.8917 18.3364 16.364 16.8641M14.5 10.5001V6.75006" stroke="#F5F5F5" stroke-width="1.5" stroke-linecap="round"/>
</svg>
