<svg width="14" height="13" viewBox="0 0 14 13" fill="none" xmlns="http://www.w3.org/2000/svg">
<path d="M3.99534 11.5C3.71201 11.5 3.44867 11.3427 3.34534 11.0787C3.1165 10.4962 2.99935 9.87582 3.00001 9.25C3.00001 8.08333 3.39934 7.01133 4.06801 6.16067C4.16867 6.03267 4.31667 5.95467 4.46801 5.896C4.78334 5.774 5.06134 5.55333 5.27601 5.28C5.79352 4.61976 6.44316 4.07481 7.18334 3.68C7.66534 3.424 8.08334 3.04267 8.28534 2.53667C8.42721 2.18217 8.50007 1.80383 8.50001 1.422V1C8.50001 0.867392 8.55268 0.740215 8.64645 0.646447C8.74022 0.552678 8.8674 0.5 9.00001 0.5C9.39783 0.5 9.77936 0.658035 10.0607 0.93934C10.342 1.22064 10.5 1.60218 10.5 2C10.5 2.768 10.3267 3.49533 10.018 4.14533C9.84067 4.51733 10.0893 5 10.5013 5H12.5853C13.2693 5 13.882 5.46267 13.9547 6.14333C13.9847 6.42467 14 6.71 14 7C14.0028 8.82423 13.3794 10.5942 12.234 12.014C11.9753 12.3353 11.576 12.5 11.164 12.5H8.48667C8.16467 12.5 7.84401 12.448 7.53801 12.3467L5.46201 11.6533C5.15608 11.5516 4.83575 11.4998 4.51334 11.5H3.99534ZM0.554007 6.318C0.18662 7.2518 -0.00133212 8.24653 7.10666e-06 9.25C-0.000834864 10.0422 0.115995 10.8301 0.346674 11.588C0.520007 12.1547 1.06934 12.5 1.66201 12.5H2.26667C2.56334 12.5 2.74667 12.168 2.61534 11.9013C2.20877 11.0767 1.99796 10.1694 1.99934 9.25C1.99934 8.11133 2.31667 7.04667 2.86734 6.13933C3.03067 5.87067 2.84867 5.5 2.53401 5.5H1.83334C1.27867 5.5 0.758007 5.802 0.554007 6.318Z" fill="#2D86FC"/>
</svg>
