<svg width="18" height="21" viewBox="0 0 18 21" fill="none" xmlns="http://www.w3.org/2000/svg">
<path d="M13.5 9V5.25C13.5 4.05653 13.0259 2.91193 12.182 2.06802C11.3381 1.22411 10.1935 0.75 9 0.75C7.80653 0.75 6.66193 1.22411 5.81802 2.06802C4.97411 2.91193 4.5 4.05653 4.5 5.25V9M3.75 20.25H14.25C14.8467 20.25 15.419 20.0129 15.841 19.591C16.2629 19.169 16.5 18.5967 16.5 18V11.25C16.5 10.6533 16.2629 10.081 15.841 9.65901C15.419 9.23705 14.8467 9 14.25 9H3.75C3.15326 9 2.58097 9.23705 2.15901 9.65901C1.73705 10.081 1.5 10.6533 1.5 11.25V18C1.5 18.5967 1.73705 19.169 2.15901 19.591C2.58097 20.0129 3.15326 20.25 3.75 20.25Z" stroke="#F5F5F5" stroke-width="1.5" stroke-linecap="round" stroke-linejoin="round"/>
</svg>
