<svg width="16" height="17" viewBox="0 0 16 17" fill="none" xmlns="http://www.w3.org/2000/svg">
<path fill-rule="evenodd" clip-rule="evenodd" d="M7.293 0.793031C7.48053 0.605559 7.73484 0.500244 8 0.500244C8.26516 0.500244 8.51947 0.605559 8.707 0.793031L15.707 7.79303C15.8468 7.93288 15.942 8.11105 15.9806 8.305C16.0192 8.49895 15.9993 8.69998 15.9237 8.88268C15.848 9.06538 15.7199 9.22155 15.5555 9.33143C15.391 9.44132 15.1978 9.49999 15 9.50003H14V15.5C14 15.7652 13.8946 16.0196 13.7071 16.2071C13.5196 16.3947 13.2652 16.5 13 16.5H11C10.7348 16.5 10.4804 16.3947 10.2929 16.2071C10.1054 16.0196 10 15.7652 10 15.5V12.5C10 12.2348 9.89464 11.9805 9.70711 11.7929C9.51957 11.6054 9.26522 11.5 9 11.5H7C6.73478 11.5 6.48043 11.6054 6.29289 11.7929C6.10536 11.9805 6 12.2348 6 12.5V15.5C6 15.7652 5.89464 16.0196 5.70711 16.2071C5.51957 16.3947 5.26522 16.5 5 16.5H3C2.73478 16.5 2.48043 16.3947 2.29289 16.2071C2.10536 16.0196 2 15.7652 2 15.5V9.50003H1C0.80225 9.49999 0.608952 9.44132 0.444542 9.33143C0.280132 9.22155 0.151993 9.06538 0.0763226 8.88268C0.000652574 8.69998 -0.0191505 8.49895 0.0194171 8.305C0.0579847 8.11105 0.153191 7.93288 0.293001 7.79303L7.293 0.793031Z" fill="#F5F5F5"/>
</svg>
