<svg width="24" height="24" viewBox="0 0 24 24" fill="none" xmlns="http://www.w3.org/2000/svg">
<path d="M6.827 6.17502C6.64699 6.45993 6.40682 6.702 6.12334 6.88426C5.83985 7.06651 5.51993 7.18452 5.186 7.23002C4.806 7.28402 4.429 7.34202 4.052 7.40502C2.999 7.58002 2.25 8.50702 2.25 9.57402V18C2.25 18.5968 2.48705 19.1691 2.90901 19.591C3.33097 20.013 3.90326 20.25 4.5 20.25H19.5C20.0967 20.25 20.669 20.013 21.091 19.591C21.5129 19.1691 21.75 18.5968 21.75 18V9.57402C21.75 8.50702 21 7.58002 19.948 7.40502C19.5707 7.34216 19.1927 7.28382 18.814 7.23002C18.4802 7.18438 18.1605 7.0663 17.8772 6.88406C17.5939 6.70181 17.3539 6.45981 17.174 6.17502L16.352 4.85902C16.1674 4.55912 15.9132 4.30812 15.611 4.12726C15.3089 3.9464 14.9675 3.84101 14.616 3.82002C12.8733 3.72642 11.1267 3.72642 9.384 3.82002C9.03245 3.84101 8.69114 3.9464 8.38896 4.12726C8.08678 4.30812 7.83262 4.55912 7.648 4.85902L6.827 6.17502Z" stroke="#A1A3A7" stroke-width="1.5" stroke-linecap="round" stroke-linejoin="round"/>
<path d="M16.5 12.75C16.5 13.9435 16.0259 15.0881 15.182 15.932C14.3381 16.7759 13.1935 17.25 12 17.25C10.8065 17.25 9.66193 16.7759 8.81802 15.932C7.97411 15.0881 7.5 13.9435 7.5 12.75C7.5 11.5565 7.97411 10.4119 8.81802 9.56802C9.66193 8.72411 10.8065 8.25 12 8.25C13.1935 8.25 14.3381 8.72411 15.182 9.56802C16.0259 10.4119 16.5 11.5565 16.5 12.75ZM18.75 10.5H18.758V10.508H18.75V10.5Z" stroke="#A1A3A7" stroke-width="1.5" stroke-linecap="round" stroke-linejoin="round"/>
</svg>
