<svg width="14" height="16" viewBox="0 0 14 16" fill="none" xmlns="http://www.w3.org/2000/svg">
<path d="M3.81134 7.2714C3.64991 6.98094 3.39661 6.75231 3.09118 6.62139C2.78576 6.49047 2.44551 6.46467 2.12384 6.54805C1.80217 6.63143 1.51729 6.81927 1.31393 7.08207C1.11056 7.34487 1.00021 7.66777 1.00021 8.00007C1.00021 8.33237 1.11056 8.65526 1.31393 8.91806C1.51729 9.18087 1.80217 9.3687 2.12384 9.45208C2.44551 9.53546 2.78576 9.50966 3.09118 9.37874C3.39661 9.24782 3.64991 9.01919 3.81134 8.72873M3.81134 7.2714C3.93134 7.4874 4 7.7354 4 8.00007C4 8.26473 3.93134 8.5134 3.81134 8.72873M3.81134 7.2714L10.1887 3.72873M3.81134 8.72873L10.1887 12.2714M10.1887 3.72873C10.2822 3.90483 10.4098 4.06051 10.5642 4.18669C10.7186 4.31286 10.8966 4.407 11.0877 4.46358C11.2789 4.52017 11.4795 4.53808 11.6776 4.51626C11.8758 4.49444 12.0677 4.43333 12.242 4.33651C12.4162 4.23968 12.5695 4.10908 12.6927 3.95234C12.8159 3.7956 12.9067 3.61587 12.9596 3.42366C13.0126 3.23144 13.0267 3.03059 13.0011 2.83286C12.9755 2.63513 12.9108 2.44449 12.8107 2.27207C12.6134 1.93229 12.2907 1.68349 11.9119 1.57914C11.5331 1.47479 11.1285 1.52323 10.785 1.71404C10.4416 1.90484 10.1867 2.22279 10.0752 2.59953C9.96366 2.97627 10.0044 3.38172 10.1887 3.72873ZM10.1887 12.2714C10.093 12.4437 10.0322 12.6331 10.0097 12.8288C9.98718 13.0246 10.0035 13.2228 10.0576 13.4123C10.1117 13.6018 10.2027 13.7787 10.3252 13.933C10.4477 14.0874 10.5994 14.216 10.7717 14.3117C10.9439 14.4074 11.1333 14.4682 11.3291 14.4907C11.5248 14.5132 11.7231 14.4969 11.9126 14.4428C12.102 14.3887 12.279 14.2977 12.4333 14.1752C12.5876 14.0527 12.7163 13.901 12.812 13.7287C13.0053 13.3809 13.0524 12.9705 12.9431 12.5878C12.8337 12.2052 12.5769 11.8817 12.229 11.6884C11.8811 11.4951 11.4707 11.448 11.0881 11.5573C10.7055 11.6667 10.3819 11.9235 10.1887 12.2714Z" stroke="#A1A3A7" stroke-width="1.0625" stroke-linecap="round" stroke-linejoin="round"/>
</svg>
